<?xml version="1.0" encoding="UTF-8"?>
<svg width="112px" height="128px" viewBox="0 0 112 128" version="1.1" xmlns="http://www.w3.org/2000/svg" xmlns:xlink="http://www.w3.org/1999/xlink">
    <!-- Generator: Sketch 58 (84663) - https://sketch.com -->
    <title>movies-2</title>
    <desc>Created with Sketch.</desc>
    <g id="Page-1" stroke="none" stroke-width="1" fill="none" fill-rule="evenodd">
        <g id="110-Color-Cinema-Element-Icons" transform="translate(-205.000000, -2487.000000)" fill-rule="nonzero">
            <g id="movies-2" transform="translate(205.000000, 2487.000000)">
                <path d="M93.11325,65.0182612 L71.7805,65.0182612 L50.447,65.0182612 L29.11425,65.0182612 L15.78075,65.0182612 L15.78075,111.576078 C15.78075,119.145294 21.98525,125.338199 29.56925,125.338199 L87.325,125.338199 C94.90825,125.338199 101.1135,119.145045 101.1135,111.576078 L101.1135,65.0182612 L93.11325,65.0182612 Z" id="Shape" fill="#FCD051"></path>
                <polygon id="Rectangle-path" fill="#D12D4E" points="7.78 49.0482027 109.11275 49.0482027 109.11275 65.0177622 7.78 65.0177622"></polygon>
                <polygon id="Rectangle-path" fill="#D12D4E" transform="translate(53.572686, 25.982301) rotate(-17.811681) translate(-53.572686, -25.982301) " points="2.90280691 17.9977439 104.242564 17.9977439 104.242564 33.9668579 2.90280691 33.9668579"></polygon>
                <path d="M53.93925,78.3260195 L54.00325,78.3260195 C55.476,78.3260195 56.67,77.133848 56.67,75.6644678 C56.67,74.1943392 55.47575,73.0029162 54.00325,73.0029162 L53.93925,73.0029162 C52.4665,73.0029162 51.2725,74.1945887 51.2725,75.6644678 C51.27225,77.1340975 52.4665,78.3260195 53.93925,78.3260195 Z" id="Shape" fill="#000003"></path>
                <path d="M26.44725,78.3247719 L46.27775,78.3247719 C47.75075,78.3247719 48.9445,77.1328499 48.9445,75.6632203 C48.9445,74.1930916 47.7505,73.0016686 46.27775,73.0016686 L26.44725,73.0016686 C24.97425,73.0016686 23.7805,74.1933411 23.7805,75.6632203 C23.7805,77.1330994 24.9745,78.3247719 26.44725,78.3247719 Z" id="Shape" fill="#000003"></path>
                <path d="M81.23125,88.9714776 L81.2945,88.9714776 C82.7675,88.9714776 83.96125,87.7795556 83.96125,86.3099259 C83.96125,84.8397973 82.76725,83.6483743 81.2945,83.6483743 L81.23125,83.6483743 C79.7585,83.6483743 78.5645,84.8400468 78.5645,86.3099259 C78.5645,87.7795556 79.75875,88.9714776 81.23125,88.9714776 Z" id="Shape" fill="#000003"></path>
                <path d="M26.44725,88.9704795 L73.57,88.9704795 C75.043,88.9704795 76.23675,87.7785575 76.23675,86.3089279 C76.23675,84.8387992 75.04275,83.6473762 73.57,83.6473762 L26.44725,83.6473762 C24.97425,83.6473762 23.7805,84.8390487 23.7805,86.3089279 C23.7805,87.7785575 24.9745,88.9704795 26.44725,88.9704795 Z" id="Shape" fill="#000003"></path>
                <path d="M90.44725,94.2923353 L26.44725,94.2923353 C24.97425,94.2923353 23.7805,95.4840078 23.7805,96.9538869 C23.7805,98.4232671 24.9745,99.6154386 26.44725,99.6154386 L55.7805,99.6154386 L55.7805,114.691992 C55.7805,116.161372 56.9745,117.353544 58.44725,117.353544 C59.92025,117.353544 61.114,116.161372 61.114,114.691992 L61.114,99.6154386 L90.4465,99.6154386 C91.91925,99.6154386 93.11325,98.4232671 93.11325,96.9538869 C93.114,95.4837583 91.91975,94.2923353 90.44725,94.2923353 Z" id="Shape" fill="#000003"></path>
                <path d="M111.76675,48.7862144 C111.76275,48.7462924 111.75525,48.7066199 111.74975,48.6671969 C111.743,48.6207875 111.73775,48.5746277 111.7285,48.5287173 C111.71975,48.4835556 111.7075,48.4398908 111.69625,48.3957271 C111.686,48.3558051 111.6775,48.3156335 111.6655,48.2762105 C111.65225,48.2325458 111.636,48.1911267 111.62075,48.14846 C111.60625,48.109037 111.59325,48.0693645 111.57725,48.0304405 C111.56075,47.9910175 111.5415,47.9523431 111.523,47.9139181 C111.504,47.8739961 111.48625,47.8333255 111.4655,47.7944016 C111.4455,47.7574737 111.42275,47.7222924 111.4015,47.6863626 C111.37825,47.6476881 111.3565,47.6082651 111.331,47.5708382 C111.30425,47.5311657 111.275,47.4939883 111.24675,47.4558129 C111.223,47.4246238 111.20125,47.3924366 111.17575,47.3614971 C111.1205,47.2938791 111.06175,47.2295049 111.00025,47.1673762 C111.00025,47.1673762 110.9995,47.1663782 110.99925,47.1658791 C110.99775,47.1648811 110.996,47.1631345 110.9945,47.1621365 C110.9335,47.1012554 110.87,47.044117 110.8035,46.9897232 C110.77375,46.965271 110.742,46.9440624 110.71075,46.9206082 C110.67175,46.8916647 110.634,46.8617232 110.594,46.8350253 C110.55725,46.8105731 110.51925,46.7893645 110.48175,46.7669084 C110.4445,46.7444522 110.40825,46.7212476 110.3695,46.7007875 C110.332,46.680577 110.2935,46.6638596 110.25475,46.6456452 C110.21425,46.6264327 110.17425,46.6062222 110.1325,46.5890058 C110.09575,46.5737856 110.0585,46.561809 110.02125,46.5485848 C109.9765,46.5323665 109.932,46.5153996 109.88575,46.5011774 C109.8495,46.4901988 109.813,46.4824639 109.77625,46.473232 C109.7285,46.4607563 109.6815,46.4477817 109.63275,46.4383002 C109.592,46.4300663 109.55025,46.4253255 109.509,46.4190877 C109.4645,46.4128499 109.42025,46.4043665 109.37475,46.3998752 C109.30375,46.3931384 109.2325,46.3906433 109.16175,46.3893957 C109.1455,46.3888967 109.1295,46.3866511 109.113,46.3866511 L24.80075,46.3866511 L105.07225,20.6484211 C105.1395,20.6272125 105.20375,20.6010136 105.268,20.5748148 C105.28325,20.568577 105.299,20.5638363 105.3145,20.557848 C105.41525,20.5141832 105.51125,20.4642807 105.6045,20.4101365 C105.62725,20.3971618 105.6485,20.382191 105.671,20.3687173 C105.74375,20.3230565 105.814,20.2746511 105.8815,20.2225029 C105.905,20.2042885 105.9285,20.1870721 105.95125,20.1683587 C106.03475,20.0997427 106.11475,20.0276335 106.18875,19.9500351 C106.198,19.9403041 106.20625,19.9293255 106.21575,19.918846 C106.282,19.8469864 106.34325,19.7716335 106.40075,19.6937856 C106.419,19.6688343 106.437,19.6436335 106.45425,19.6184327 C106.5175,19.5258635 106.57725,19.4312982 106.62825,19.3324912 C106.62825,19.3324912 106.62875,19.3314932 106.62875,19.3309942 C106.63025,19.3282495 106.6315,19.3255049 106.633,19.3222612 C106.6715,19.2474074 106.706,19.1705575 106.73725,19.091961 C106.7525,19.0537856 106.76375,19.0156101 106.77675,18.9774347 C106.792,18.933271 106.80825,18.8901053 106.821,18.8449435 C106.8335,18.8012788 106.8425,18.757115 106.85275,18.7129513 C106.862,18.6725302 106.87275,18.6323587 106.88025,18.5911891 C106.888,18.5475244 106.89275,18.5038596 106.8985,18.4596959 C106.90425,18.4175283 106.911,18.3751111 106.9145,18.3321949 C106.918,18.2907758 106.91825,18.2493567 106.9195,18.2084366 C106.921,18.1627758 106.924,18.1168655 106.92325,18.0704561 C106.9225,18.0310331 106.9185,17.9913606 106.91625,17.9514386 C106.91325,17.9045302 106.9115,17.8578713 106.906,17.8107135 C106.90075,17.7670487 106.89225,17.723883 106.88525,17.6802183 C106.878,17.6380507 106.87275,17.5961326 106.86375,17.5537154 C106.84725,17.4778635 106.82675,17.4030097 106.8035,17.328655 C106.8005,17.319423 106.799,17.3099415 106.79625,17.3007096 L101.9025,2.097154 C101.68575,1.42496686 101.211,0.86605848 100.58175,0.543688109 C99.953,0.220818713 99.22075,0.160935673 98.5475,0.376764133 L83.32575,5.25773099 C83.31825,5.26047563 83.31075,5.26247173 83.30325,5.26496686 L63.00825,11.7725068 C63.0045,11.7735049 63.001,11.7747524 62.99725,11.7757505 L42.7195,18.2783002 C42.702,18.2832904 42.68425,18.2892788 42.66675,18.2950175 L22.39275,24.7958207 C22.38575,24.7985653 22.37825,24.8005614 22.3715,24.8025575 L2.076,31.3105965 C1.99125,31.3377934 1.90775,31.3689825 1.82575,31.4041637 C1.8165,31.4084055 1.808,31.4128967 1.7985,31.4171384 C1.728,31.4483275 1.659,31.4820117 1.59175,31.5191891 C1.58025,31.5259259 1.5695,31.5334113 1.55825,31.5398986 C1.49425,31.5768265 1.43075,31.6147524 1.37,31.6566706 C1.36225,31.6619103 1.355,31.6681481 1.3475,31.6736374 C1.284,31.7183002 1.222,31.7647096 1.16275,31.8148616 C1.1585,31.8186043 1.155,31.8220975 1.151,31.8258402 C1.0895,31.8782378 1.02975,31.9333801 0.9725,31.9922651 C0.96825,31.9970058 0.9645,32.0014971 0.96025,32.0064873 C0.90475,32.0641248 0.8515,32.1237583 0.80075,32.187384 C0.78925,32.2021053 0.77975,32.217575 0.7685,32.2320468 C0.72725,32.2866901 0.6855,32.3410838 0.64825,32.3994698 C0.6,32.473076 0.5555,32.5501754 0.51475,32.629271 C0.47425,32.7088655 0.43775,32.7899571 0.40525,32.8720468 C0.382,32.9314308 0.3635,32.9910643 0.3445,33.0509474 C0.33725,33.0744016 0.328,33.0966082 0.3215,33.1195634 C0.3005,33.1931696 0.284,33.2677739 0.26975,33.3421287 C0.268,33.3518596 0.26475,33.3623392 0.26275,33.3723197 C0.24925,33.4486706 0.23975,33.5250214 0.233,33.6008733 C0.23225,33.6106043 0.23,33.6205848 0.22925,33.6298168 C0.2235,33.7019259 0.222,33.7742846 0.22225,33.8461442 C0.22225,33.8613645 0.22075,33.8763353 0.221,33.890807 C0.22225,33.9574269 0.22775,34.0232982 0.23375,34.0894191 C0.236,34.1101287 0.236,34.1308382 0.23825,34.1510487 C0.2455,34.214425 0.25725,34.2775517 0.26925,34.3396803 C0.27375,34.3626355 0.27575,34.3853411 0.281,34.4082963 C0.29925,34.4928811 0.3215,34.5772164 0.3485,34.6598051 L5.114,49.4636413 L5.114,65.0177622 C5.114,65.0831345 5.11925,65.1470097 5.1235,65.211384 C5.125,65.2325926 5.12475,65.2540507 5.127,65.2747602 C5.13275,65.3381365 5.14375,65.4000156 5.15425,65.4618947 C5.15825,65.4853489 5.16,65.5088031 5.165,65.5322573 C5.177,65.5931384 5.19275,65.6517739 5.20875,65.7111579 C5.2155,65.7356101 5.2205,65.7605614 5.22775,65.7847641 C5.2445,65.8409045 5.26525,65.8960468 5.286,65.9506901 C5.29575,65.9773879 5.30475,66.0040858 5.31525,66.0307836 C5.3365,66.0826823 5.3615,66.1328343 5.386,66.1824873 C5.39975,66.2109318 5.41225,66.2396257 5.427,66.2675712 C5.4535,66.3169747 5.483,66.3641326 5.51225,66.41154 C5.5285,66.4382378 5.54325,66.4656842 5.56075,66.4916335 C5.59775,66.5467758 5.638,66.5991735 5.679,66.6518207 C5.69175,66.668538 5.703,66.6855049 5.716,66.7019727 C5.829,66.8399532 5.9555,66.9659571 6.09375,67.0787368 C6.1135,67.0949552 6.1345,67.1081793 6.15475,67.1238986 C6.20375,67.1613255 6.252,67.1987524 6.30375,67.2329357 C6.334,67.2531462 6.36525,67.2703626 6.3965,67.289076 C6.43975,67.3157739 6.48225,67.3424717 6.52725,67.366425 C6.56075,67.3838908 6.5955,67.3991111 6.62975,67.4153294 C6.67425,67.436538 6.718,67.4589942 6.764,67.4777076 C6.79775,67.4919298 6.83275,67.5026589 6.86725,67.515883 C6.91475,67.5328499 6.96175,67.5508148 7.00975,67.5652865 C7.0455,67.5762651 7.0815,67.583501 7.117,67.5929825 C7.16525,67.6054581 7.213,67.6184327 7.262,67.6284133 C7.30475,67.6366472 7.34775,67.6418869 7.391,67.6481248 C7.43375,67.6543626 7.47575,67.662347 7.519,67.6663392 C7.603,67.6745731 7.68775,67.6788148 7.772,67.6793138 C7.77525,67.6793138 7.77775,67.6798129 7.781,67.6798129 L13.11425,67.6798129 L13.11425,111.575828 C13.11425,120.631641 20.496,127.99975 29.5695,127.99975 L87.32525,127.99975 C96.39875,127.99975 103.7805,120.631641 103.7805,111.575828 L103.7805,67.6798129 L109.11325,67.6798129 C110.586,67.6798129 111.78,66.4876413 111.78,65.0182612 L111.78,49.0487018 C111.78,48.9608733 111.77525,48.8735439 111.76675,48.7862144 Z M78.2185,62.35646 L88.88475,51.7102534 L102.6745,51.7102534 L92.00825,62.35646 L78.2185,62.35646 Z M56.88525,62.35646 L67.552,51.7102534 L81.342,51.7102534 L70.67575,62.35646 L56.88525,62.35646 Z M35.55225,62.35646 L46.21875,51.7102534 L60.00875,51.7102534 L49.342,62.35646 L35.55225,62.35646 Z M15.78075,62.35646 L14.2195,62.35646 L24.886,51.7102534 L38.67575,51.7102534 L28.00925,62.35646 L15.78075,62.35646 Z M22.96225,30.2037583 L36.3795,37.0830721 L23.25125,41.2921014 L9.83325,34.4132865 L22.96225,30.2037583 Z M43.27375,23.6912281 L56.691,30.5705419 L43.561,34.7808187 L30.1435,27.9015049 L43.27375,23.6912281 Z M63.58275,17.1794464 L77.00075,24.0582612 L63.87175,28.268039 L50.4545,21.3887251 L63.58275,17.1794464 Z M83.89425,10.6661676 L97.31175,17.5459805 L84.183,21.7550097 L70.76475,14.8761949 L83.89425,10.6661676 Z M16.06925,43.5956023 L9.5045,45.7004912 L7.3955,39.1492865 L16.06925,43.5956023 Z M10.4475,51.7105029 L17.34275,51.7105029 L10.4475,58.5920624 L10.4475,51.7105029 Z M99.74875,12.810729 L91.0755,8.36391423 L97.6395,6.25902534 L99.74875,12.810729 Z M98.44675,111.576078 C98.44675,117.696873 93.4575,122.676647 87.32525,122.676647 L29.56925,122.676647 C23.43675,122.676647 18.44775,117.696873 18.44775,111.576078 L18.44775,67.6798129 L98.447,67.6798129 L98.44675,111.576078 L98.44675,111.576078 Z M101.1135,62.35646 L99.5515,62.35646 L106.4465,55.4746511 L106.4465,62.35646 L101.1135,62.35646 Z" id="Shape" fill="#000003"></path>
            </g>
        </g>
    </g>
</svg>